Inverse Dynamics Generalized Forces
version=1
nRows=12
nColumns=34
inDegrees=no
endheader 
time	pelvis_tilt_moment	pelvis_list_moment	pelvis_rotation_moment	pelvis_tx_force	pelvis_ty_force	pelvis_tz_force	hip_flexion_l_moment	hip_adduction_l_moment	hip_rotation_l_moment	hip_flexion_r_moment	hip_adduction_r_moment	hip_rotation_r_moment	knee_angle_l_moment	knee_angle_r_moment	ankle_angle_l_moment	ankle_angle_r_moment	subtalar_angle_l_moment	subtalar_angle_r_moment	mtp_angle_l_moment	mtp_angle_r_moment	lumbar_extension_moment	lumbar_bending_moment	lumbar_rotation_moment	arm_flex_l_moment	arm_add_l_moment	arm_rot_l_moment	arm_flex_r_moment	arm_add_r_moment	arm_rot_r_moment	elbow_flex_l_moment	elbow_flex_r_moment	pro_sup_l_moment	pro_sup_r_moment	
          2.40000000	          0.00000005	          0.00000000	         -0.00000001	          0.00000004	         -0.00000001	         -0.00000001	        -28.68440664	         37.87144520	         -6.95972373	        -78.45942808	        -21.55248852	         10.10270190	        -16.84584230	        -12.08208004	         30.58411949	        -10.36146329	        -12.75169294	          4.27778462	         -4.39140261	          0.25721766	         -2.78641903	        -74.55702390	        -61.17717716	       -150.48276908	        150.43964428	          2.72281351	       -150.06827093	        -78.03683143	        154.54371490	          9.98661957	         98.28225193	         -1.84287479	          1.96130644	
          2.41000000	         -0.00000001	         -0.00000001	          0.00000000	         -0.00000000	          0.00000000	          0.00000001	        -16.64524522	         41.14236202	         -4.90106732	        -10.45562400	        -32.19205526	          2.96220416	         -9.70558489	        -79.34354992	         15.41039427	        -75.13300692	         -5.61513006	         26.76918839	         -1.70750882	         10.10571912	        -12.12259437	        -50.18658891	        -42.15560199	        -75.44161012	         75.60929597	          9.44248519	       -116.53037137	        -21.14396886	         95.45690010	          7.49728697	         36.85637788	          0.75232916	          1.25175678	
          2.42000000	          0.00000010	          0.00000002	         -0.00000003	          0.00000010	         -0.00000002	         -0.00000002	         11.93929793	         28.18466456	         -3.00564951	          1.17954953	        -32.71055519	         -0.65321289	         -9.92562894	        -84.19830328	         -0.75151488	        -90.24902869	          2.14073203	         32.28302256	          0.95050637	         11.42910738	         -3.06986462	        -38.53836897	        -14.37101146	        -19.19690851	         19.53711582	         10.15466275	        -49.97498785	         21.63679131	         33.82077086	          2.52552249	         -6.77873751	          1.61015474	          0.67815825	
          2.43000000	          0.00000013	          0.00000003	         -0.00000003	          0.00000012	         -0.00000003	         -0.00000002	          9.74247979	         18.95357478	         -5.33550713	         22.74986013	        -36.50479012	         -1.50218036	         -7.91456167	        -92.07705367	         -4.11222467	        -97.45843102	          3.16260413	         36.22516881	          1.27627479	         12.24003649	          2.37407997	        -47.21559987	         -2.34164795	         22.94786714	        -22.50542573	         -5.15279908	          0.00051218	          7.93364067	         -4.73424320	         -5.42134264	          3.68028299	         -0.84425289	         -0.20111295	
          2.44000000	          0.00000049	          0.00000008	         -0.00000012	          0.00000048	         -0.00000010	         -0.00000009	          6.45560753	         14.54570742	         -5.13004452	         31.81213361	        -37.09956582	         -0.56273559	        -10.38297312	        -91.33312076	         -4.09568594	       -100.03660701	          2.77598478	         38.16637189	          1.20894457	         12.60924893	         18.22648305	        -55.89900151	          2.47411123	         54.51070619	        -38.02652285	        -14.18981375	         37.41696809	         -5.51177630	        -11.33679474	         -0.95803137	         25.13463573	         -2.26438286	         -0.71119372	
          2.45000000	          0.00000325	          0.00000048	         -0.00000078	          0.00000322	         -0.00000068	         -0.00000059	          2.01419841	         15.32409172	         -5.22159283	         42.32122115	        -36.99991899	         -0.84790301	        -20.10380323	       -100.05240852	         -2.85794319	       -110.61469549	          2.37042803	         40.46799428	          0.97775038	         14.33121214	         25.04213701	        -64.10582683	         -2.97873242	         52.52996908	          8.63357702	         -7.41064621	         26.86489339	          0.99350423	          4.43431369	         14.87846363	         18.40919487	         -1.44622223	         -0.31013755	
          2.46000000	          0.00000263	          0.00000035	         -0.00000061	          0.00000264	         -0.00000054	         -0.00000043	         -3.49620458	         13.15520014	         -4.59839920	         29.23623139	        -30.43137560	         -1.68218457	        -12.73208886	        -68.96768638	         -3.48651677	       -105.57804521	          2.56629733	         39.93062923	          0.91571131	         13.74905693	         19.35091324	        -34.78464779	         -9.03925875	         45.08123871	         29.07738058	          6.35440210	        -17.00734779	         19.83992734	         17.86731625	         27.48098251	         19.68994979	          1.18277830	         -0.22468451	
          2.47000000	          0.00000080	          0.00000009	         -0.00000018	          0.00000081	         -0.00000017	         -0.00000012	          1.10823400	         15.60219383	         -4.21111161	         36.71150388	        -28.83339513	         -2.23627122	         -7.75492184	       -149.05290934	         -2.96204285	       -101.88729691	          2.12990737	         36.28547983	          0.78609779	         15.48592911	         45.57061650	        -56.78362780	         24.54791653	         71.14321127	          7.81603422	          8.73454198	        -17.88484600	         32.11336438	         16.18672597	         37.20837377	         20.05316507	          1.79472616	         -0.25675421	
          2.48000000	          0.00000000	          0.00000000	         -0.00000000	          0.00000000	         -0.00000000	         -0.00000000	         -3.60462521	         10.56847872	         -4.00851781	          3.63777067	        -14.58396762	         -2.05079063	         -2.05444882	         -4.45072663	         -0.82737543	        -74.23022695	          0.48251535	         34.19458495	          0.53181388	         10.97851065	         21.58657616	        -14.90871631	          6.51356058	         90.74121036	          8.61685211	         -1.69829792	         24.05166969	          0.87348918	         -1.09850921	         32.31330702	          2.30508390	         -0.37608479	         -0.00653293	
          2.49000000	         -0.00000000	         -0.00000000	         -0.00000000	         -0.00000000	         -0.00000000	          0.00000000	         10.54056419	         19.34786415	         -3.57259232	         42.74604082	        -34.88594435	          4.40179988	          0.54715208	       -143.27751475	          1.12689256	       -136.32725536	         -0.36047798	         50.69028435	         -0.05642491	         18.76944906	         44.70779223	        -85.74952458	         30.69683828	        105.30091189	        -25.16098295	        -13.10345906	         55.36901765	          2.26618758	         -5.35613767	         24.75019656	         -0.53783886	         -2.13046075	         -0.12972829	
          2.50000000	         -0.00000000	         -0.00000000	         -0.00000000	         -0.00000000	         -0.00000000	          0.00000000	          0.50178456	         17.71374906	         -3.97156144	         36.94147502	        -28.66732637	          2.46465143	          5.49709249	       -102.26824913	          1.77931704	       -161.88005264	         -0.37845583	         63.64279625	         -0.02379426	         19.98704253	         27.10407754	        -73.22715171	         -0.77072596	         43.49429349	        -15.02745386	        -11.22961376	         16.42975280	         -3.47787606	         -7.22796756	          4.66270529	         13.36576592	         -1.87992215	         -0.44534952	
          2.51000000	         -0.00000000	         -0.00000000	          0.00000000	         -0.00000000	          0.00000000	          0.00000000	          1.55170633	         22.59068169	         -4.16874185	         44.20219207	        -29.60262002	          1.18032183	          6.99658133	        -93.10661605	          3.65882196	       -196.94331293	         -1.35801615	         73.96457412	         -0.02766650	         22.95195083	          2.72753589	        -75.26626899	        -13.23659595	         -4.79217711	         15.70828978	          3.24520605	         -5.37417242	          1.78196017	          2.81633106	         -1.97305704	         18.32481244	          0.51973522	         -0.33293593	
